<?xml version="1.0" encoding="utf-8"?>
<!-- Generator: Adobe Illustrator 28.0.0, SVG Export Plug-In . SVG Version: 6.00 Build 0)  -->
<svg version="1.1" id="Vrstva_1" xmlns="http://www.w3.org/2000/svg" xmlns:xlink="http://www.w3.org/1999/xlink" x="0px" y="0px"
	 viewBox="0 0 850.39 359.65" style="enable-background:new 0 0 850.39 359.65;" xml:space="preserve">
<style type="text/css">
	.st0{fill:#FFFFFF;}
	.st1{fill:#68AB46;}
	.st2{fill:#555454;}
	.st3{fill:#D99534;}
	.st4{fill:#304B27;}
	.st5{fill:#5CA747;}
	.st6{fill:#D16C2E;}
	.st7{fill:#D33A2F;}
	.st8{fill:#69AB47;}
</style>
<g>
	<g>
		<path d="M790.31,194.12c0-12.06-9.81-21.88-21.88-21.88h-25.1V89.02c0-12.06-9.81-21.88-21.88-21.88h-23.34
			c-1.75,0-3.58,0.24-5.44,0.72l-2.02,0.52l-2.02-0.52c-1.88-0.48-3.66-0.72-5.44-0.72h-23.34c-6.12,0-12,2.59-16.13,7.09
			l-6.01,6.55l-6.01-6.55c-4.13-4.51-10.01-7.09-16.13-7.09h-23.34c-5.34,0-10.5,1.98-14.53,5.56l-4.26,3.79l-5.02-2.7
			c-9.87-5.3-21.06-8.1-32.37-8.1c-9.77,0-19.21,2.01-28.06,5.99l-4.17,1.87l-3.77-2.59c-3.65-2.5-7.92-3.83-12.35-3.83h-72.18
			c-12.06,0-21.88,9.81-21.88,21.88v20.81c0,10.51,7.48,19.55,17.78,21.5l6.64,1.25v39.66h-44.71c-12.06,0-21.88,9.81-21.88,21.88
			v82.64c0,12.06,9.81,21.88,21.88,21.88h23.34c8.67,0,16.54-5.13,20.04-13.08l7.46-16.94l7.46,16.94
			c3.5,7.95,11.36,13.08,20.02,13.08h23.34c3.14,0,6.16-0.65,8.99-1.92l3.35-1.51l3.35,1.51c2.84,1.28,5.86,1.93,8.98,1.93h26.59
			c1.02,0,2.13-0.1,3.38-0.29l1.26-0.2l1.26,0.19c1.3,0.2,2.37,0.29,3.37,0.29h66.53c3.67,0,7.16-0.88,10.37-2.61l3.14-1.69
			l3.37,1.15c8.92,3.05,18.37,4.59,28.11,4.59c9.56,0,18.38-1.66,26.21-4.94l3.76-1.57l3.51,2.06c3.36,1.97,7.17,3.01,11.03,3.01
			h23.34c3.87,0,7.67-1.02,11-2.96l4.1-2.39l4.1,2.39c3.32,1.93,7.12,2.96,10.99,2.96h23.34c12.06,0,21.88-9.81,21.88-21.88V194.12z
			"/>
	</g>
	<g>
		<path class="st0" d="M439.97,109.83h-24.42V89.02h72.18v20.81h-24.42v61.83h-23.34V109.83z"/>
		<path class="st0" d="M491.09,130.29c0-23.22,20.57-42.71,44.99-42.71c24.42,0,44.99,19.49,44.99,42.71s-20.57,42.83-44.99,42.83
			C511.66,173.11,491.09,153.5,491.09,130.29z M557.01,130.29c0-11.67-9.62-21.53-20.93-21.53c-11.31,0-20.93,9.86-20.93,21.53
			c0,11.79,9.62,21.65,20.93,21.65C547.39,151.94,557.01,142.07,557.01,130.29z"/>
		<path class="st0" d="M592.26,89.02h23.34l22.13,39.46l22.14-39.46h23.34v82.65h-23.34V127.4l-22.14,39.46L615.6,127.4v44.27
			h-23.34V89.02z"/>
		<path class="st0" d="M698.12,89.02h23.34v82.65h-23.34V89.02z"/>
		<path class="st1" d="M396.72,214.93v11.67h39.34v20.81h-39.34v29.35h-23.34v-82.65h66.53v20.81H396.72z"/>
		<path class="st1" d="M499.69,276.76l-17.44-24.9h-7.22v24.9h-23.34v-82.65h39.58c18.53,0,31.64,11.91,31.64,28.87
			c0,11.79-6.26,21.05-16.36,25.74l19.73,28.03H499.69z M475.03,230.69h14.32c5.53,0,9.5-3.25,9.5-7.7s-3.97-7.7-9.5-7.7h-14.32
			V230.69z"/>
		<path class="st1" d="M558.88,214.93v9.26h39.34v20.81h-39.34v10.95h43.19v20.81h-66.53v-82.65h66.53v20.81H558.88z"/>
		<path class="st1" d="M607.59,264.25l12.99-15.52c8.42,6.62,17.56,10.11,27.31,10.11c6.38,0,9.74-2.17,9.74-5.77
			c0-3.97-2.89-4.57-14.32-7.22c-17.92-4.09-31.76-8.78-31.76-25.99c0-16.48,12.99-27.19,32.6-27.19c14.32,0,25.5,3.85,34.65,11.19
			l-11.67,16.48c-7.7-5.53-16.12-8.3-23.58-8.3c-5.65,0-8.42,2.29-8.42,5.41c0,4.21,2.89,5.53,14.68,8.06
			c19.25,4.09,31.28,9.26,31.28,25.02c0,17.44-13.35,27.67-34.04,27.67C632.14,278.21,618.06,273.52,607.59,264.25z"/>
		<path class="st1" d="M768.43,194.12v82.65h-23.34v-31.76h-30.2v31.76h-23.34v-82.65h23.34v30.08h30.2v-30.08H768.43z"/>
	</g>
	<g>
		<g>
			<path class="st2" d="M321.78,109.8c-20.5-12.48-37.66-2.45-39.15-1.53c-6.41,3.73-12.54,7.89-18.37,12.32
				c-4.44-11.56-13.06-19.64-25.5-23.68c-2.04-0.74-25.91-8.7-48.94,13.59c-2.37-2.11-6.02-4.99-10.42-7.28
				c-3.93-5.63-9.16-10.06-15.55-13.06c-12.45-5.84-27.11-5.26-35.14-1.67c-9.69,4.33-17.28,14.18-20.01,18.07
				c-7,0.89-30.69,5.24-39.54,23.81c-7.69,16.14,2.5,35.61,10.82,46.5c5.07,57.92,51.35,105.6,111.57,112.4
				c-0.03-0.12-3.5-14.93,2.11-36.72l0,0c0,0,2.03-6.91,2.16-7.33l0,0c1.58-4.75,3.6-9.75,6.16-14.95c0.55-0.2,1.03-0.38,1.39-0.52
				l0.19-0.08c1.19-0.55,2.36-1.11,3.53-1.66c-15.2,27.67-12.68,59.19-12.47,61.46c1.55,0.22,5.58,0.3,8.33,0.33
				c0.29,0,0.59,0.02,0.89,0.02c0.13,0,0.27,0,0.4,0c0.89,0.01,1.47,0,1.47,0c0.01-0.01,0.02-0.02,0.03-0.02
				c63.56-0.97,116.82-50.54,121.23-115.1c0.55-8.09,0.3-16.05-0.66-23.81c5.37-5.69,7.55-9.04,7.83-9.49l0.1-0.18
				C334.31,141.04,343.9,123.27,321.78,109.8z"/>
		</g>
		<g>
			<path class="st2" d="M374.71,95c-0.67-1.56-2.16-2.69-3.97-3c-2.03-0.36-4.19-0.55-6.42-0.57c-3.8-0.04-7.51,0.42-10.85,1.08
				c2.28-4.56,3.63-8.9,4.25-11.2c0.4-1.49,0.06-3.04-0.93-4.26c-1-1.22-2.5-1.92-4.13-1.94c-0.42,0-0.83,0.04-1.24,0.13
				c-6.85,1.48-11.88,4.13-15.51,6.88c-1.27-7.59-3.51-13.42-4.64-16.02c-0.8-1.86-2.7-3.08-4.84-3.1c0,0,0,0,0,0c0,0,0,0,0,0
				c-2.24-0.02-4.25,1.29-5,3.27c-3.48,9.17-4.17,18.8-4.22,24.57c-0.42-0.02-0.84-0.03-1.27-0.03c-4.23-0.04-8.56,0.53-12.87,1.71
				c-2.53,0.69-4.1,2.97-3.74,5.43c0.36,2.46,2.54,4.26,5.17,4.29c0.06,0,0.14,0,0.2,0c0.36-0.01,0.74-0.01,1.13-0.01
				c4.69,0.05,11.82,1.16,19.17,6.17c9.58,6.54,11.54,11.8,12.19,15.2c0.44,2.35,2.61,4.07,5.14,4.1c2.94,0.03,5.27-2.11,5.31-4.87
				c0.04-2.81-0.17-5.5-0.64-8.06c15.71-1.75,24.53-11.74,27.04-15.02C375.14,98.34,375.38,96.56,374.71,95z"/>
		</g>
		<g>
			<path class="st2" d="M107.75,102.72c0.14-0.22,14.09-21.81,37.05-22.66c1.28-0.05,2.34-1.02,2.49-2.3
				c0.15-1.27-0.66-2.47-1.89-2.81c-0.82-0.23-19.72-5.09-44.86,15.68c-1.33-3.53-4.09-8.2-9.69-9.88
				c-0.71-0.21-1.49-0.11-2.12,0.28c-0.63,0.39-1.07,1.04-1.19,1.78c-0.03,0.21-0.68,4.17-0.43,8.24
				c-5.28-0.11-16.05,0.04-23.57,2.56c-1.18,0.4-1.92,1.58-1.75,2.81c0.17,1.24,1.19,2.18,2.44,2.25
				c5.91,0.32,12.52,0.92,17.32,1.62c-6.45,3.4-15.67,9.86-21.06,20.75c-0.55,1.1-0.24,2.44,0.73,3.2c0.47,0.37,1.04,0.55,1.6,0.55
				c0.6,0,1.2-0.21,1.68-0.62c0.22-0.19,22.25-18.66,41.29-20.25C106.58,103.85,107.31,103.4,107.75,102.72z"/>
		</g>
		<g>
			<path class="st2" d="M186.02,104.4l3.68,0.49c0.2,0.03,0.41,0.04,0.61,0.04c1.09,0,2.15-0.38,3-1.09c1-0.84,1.61-2.06,1.67-3.37
				c0.63-13.43,10.03-31.37,10.13-31.55c1.13-2.13,0.45-4.78-1.57-6.1l-5.52-3.61c-0.77-0.5-1.66-0.76-2.56-0.76
				c-0.33,0-0.67,0.04-1,0.11c-1.23,0.27-2.3,1.02-2.96,2.09c-7.82,12.5-9.47,37.76-9.53,38.83
				C181.81,101.93,183.58,104.08,186.02,104.4z"/>
		</g>
		<g>
			<ellipse class="st2" cx="197.81" cy="296.79" rx="62.49" ry="4.31"/>
		</g>
	</g>
	<g>
		<g>
			<g>
				<g>
					<path class="st3" d="M191.98,213.45c0,0,35.37-68.47,92.54-101.73c0,0,15.95-10.15,35.11,1.52s11.06,26.18,11.06,26.18
						s-23.86,37.86-128.92,86.82C201.78,226.24,178.65,235.56,191.98,213.45z"/>
				</g>
				<g>
					<path class="st4" d="M193.07,232.09c-2.8,0-5.52-0.7-7.34-2.84c-4.08-4.79-0.36-12.38,2.85-17.71
						c2.17-4.18,37.1-70.07,93.93-103.17c1.5-0.92,18.66-10.95,39.15,1.53c22.12,13.47,12.53,31.24,12.43,31.42l-0.1,0.18
						c-1,1.59-25.67,39.39-130.57,88.28l-0.19,0.08C201.47,230.57,197.19,232.09,193.07,232.09z M191.74,224.18
						c1.29,0.44,5.29-0.26,8.49-1.52c99.67-46.47,125.65-83.08,127.11-85.23c0.77-1.52,5.22-11.75-9.73-20.86
						c-16.74-10.19-30.43-1.91-31.01-1.55l-0.12,0.07c-55.49,32.29-90.69,99.48-91.04,100.15l-0.12,0.22
						C191.87,221.19,191.7,223.55,191.74,224.18z"/>
				</g>
			</g>
			<g>
				<g>
					<g>
						<path class="st5" d="M342.26,125.6c-1.43-0.01-2.61-0.95-2.86-2.29c-0.71-3.77-2.85-9.59-13.12-16.59
							c-7.85-5.36-15.5-6.54-20.52-6.59c-0.42,0-0.83,0-1.21,0.01c-0.03,0-0.09,0-0.12,0c-1.46-0.01-2.67-1.02-2.87-2.39
							c-0.2-1.37,0.67-2.64,2.08-3.02c4.09-1.12,8.19-1.66,12.19-1.62c1.21,0.01,2.41,0.08,3.6,0.2c-0.04-1.52,0-3.63,0.17-6.57
							c0.3-5.01,1.22-12.49,3.93-19.62c0.42-1.1,1.53-1.83,2.78-1.82c1.19,0.01,2.24,0.69,2.69,1.72
							c1.29,2.98,4.09,10.33,5.06,19.72c3.36-3.42,8.95-7.36,17.78-9.27c0.23-0.05,0.46-0.07,0.69-0.07c0.9,0.01,1.74,0.4,2.29,1.08
							c0.56,0.68,0.75,1.54,0.52,2.37c-0.63,2.31-2.69,9.13-6.56,15.1c4.24-1.19,9.73-2.3,15.4-2.24c2.09,0.02,4.12,0.2,6.02,0.53
							c1.03,0.18,1.86,0.8,2.23,1.66c0.37,0.86,0.23,1.86-0.38,2.66c-2.48,3.26-11.6,13.54-27.95,14.32c0.8,3.09,1.17,6.44,1.12,10
							C345.19,124.43,343.9,125.62,342.26,125.6z"/>
					</g>
				</g>
				<g>
					<g>
						<path class="st4" d="M326.29,67.49c0.22,0,0.45,0.12,0.55,0.35c1.39,3.22,4.81,12.18,5.19,23.32c0.01,0.34,0.3,0.55,0.6,0.56
							c0.18,0,0.36-0.07,0.48-0.25c2.1-3.07,7.67-9.35,19.27-11.86c0.05-0.01,0.09-0.01,0.14-0.01c0.37,0,0.67,0.35,0.57,0.71
							c-0.79,2.92-3.69,12.36-9.35,18.49c-0.36,0.39-0.05,0.95,0.42,0.95c0.07,0,0.15-0.01,0.23-0.04c4-1.49,11.72-3.88,19.79-3.8
							c1.87,0.02,3.75,0.17,5.61,0.5c0.5,0.09,0.67,0.49,0.37,0.88c-2.21,2.9-11.53,13.62-28.43,13.45c-0.22,0-0.44-0.01-0.67-0.01
							l-0.08-0.06c1.56,4.25,1.96,8.62,1.91,12.19c-0.01,0.36-0.3,0.55-0.59,0.55c-0.26,0-0.52-0.16-0.58-0.47
							c-1.03-5.45-4.41-11.42-14.05-17.99c-8.33-5.68-16.45-6.96-21.87-7.01c-0.45,0-0.89,0-1.3,0.01c-0.01,0-0.02,0-0.03,0
							c-0.67-0.01-0.82-0.93-0.17-1.11c4.22-1.15,8.08-1.57,11.51-1.53c2.23,0.02,4.28,0.23,6.13,0.56l0,0c0,0-1.26-14.68,3.8-28.01
							C325.83,67.61,326.06,67.49,326.29,67.49 M326.33,63.1C326.33,63.1,326.33,63.1,326.33,63.1
							C326.33,63.1,326.33,63.1,326.33,63.1c-2.24-0.02-4.25,1.29-5,3.27c-3.48,9.17-4.17,18.8-4.22,24.57
							c-0.42-0.02-0.84-0.03-1.27-0.03c-4.23-0.04-8.56,0.53-12.87,1.71c-2.53,0.69-4.1,2.97-3.74,5.43
							c0.36,2.46,2.54,4.26,5.17,4.29c0.06,0,0.14,0,0.2,0c0.36-0.01,0.74-0.01,1.13-0.01c4.69,0.05,11.82,1.16,19.17,6.17
							c9.58,6.54,11.54,11.8,12.19,15.2c0.44,2.35,2.61,4.07,5.14,4.1c2.94,0.03,5.27-2.11,5.31-4.87c0.04-2.81-0.17-5.5-0.64-8.06
							c15.71-1.75,24.53-11.74,27.04-15.02c1.08-1.41,1.32-3.19,0.65-4.75c-0.67-1.56-2.16-2.69-3.97-3
							c-2.03-0.36-4.19-0.55-6.42-0.57c-3.8-0.04-7.51,0.42-10.85,1.08c2.28-4.56,3.63-8.9,4.25-11.2c0.4-1.49,0.06-3.04-0.93-4.26
							c-1-1.22-2.5-1.92-4.13-1.94c-0.42,0-0.83,0.04-1.24,0.13c-6.85,1.48-11.88,4.13-15.51,6.88c-1.27-7.59-3.51-13.42-4.64-16.02
							C330.37,64.34,328.47,63.12,326.33,63.1L326.33,63.1L326.33,63.1z"/>
					</g>
				</g>
			</g>
		</g>
		<g>
			<g>
				<g>
					<path class="st6" d="M165.95,173.27c0,0,24.28-25.31,15.81-55.49s-40.58-30.55-51.59-25.63s-19.38,18.2-19.38,18.2
						s-28.89,2.17-38.25,21.81s11.86,45.57,16.7,49.38C94.08,185.34,123.85,206.16,165.95,173.27z"/>
				</g>
				<g>
					<path class="st4" d="M119.94,195.47c-17.83,0-29.72-8.21-33.11-10.88c-6.45-5.08-28.08-32.57-17.81-54.12
						c8.85-18.57,32.55-22.92,39.54-23.81c2.73-3.89,10.32-13.75,20.01-18.07c8.04-3.59,22.69-4.17,35.14,1.67
						c10.83,5.08,18.36,14.23,21.79,26.47c8.97,31.96-15.7,58.15-16.75,59.25l-0.41,0.37C149.64,190.96,133.16,195.47,119.94,195.47
						z M143.47,93.7c-4.9,0-9.13,0.85-11.72,2c-9.82,4.39-17.59,16.59-17.67,16.71l-1.05,1.66l-1.96,0.15
						c-0.26,0.02-26.76,2.27-35.02,19.6c-8.16,17.13,11.04,41.06,15.59,44.64c5.09,4.01,32.42,22.41,71.65-8.07
						c2.08-2.29,22.09-25.23,14.7-51.56c-2.84-10.13-8.76-17.37-17.6-21.51C154.78,94.68,148.74,93.7,143.47,93.7z"/>
				</g>
			</g>
			<g>
				<g>
					<path class="st5" d="M105.44,101.43c0,0,14.48-22.96,39.15-23.87c0,0-19.65-5.4-45.61,17.83c0,0-1.24-9.73-9-12.05
						c0,0-1.01,6.04-0.02,10.51c0,0-16-0.93-25.72,2.32c0,0,21.47,1.14,25.16,3.56c0,0-18.39,5.73-26.71,22.55
						C62.69,122.29,85.32,103.11,105.44,101.43z"/>
				</g>
				<g>
					<path class="st4" d="M62.69,124.88c-0.57,0-1.13-0.18-1.6-0.55c-0.97-0.76-1.27-2.1-0.73-3.2
						c5.39-10.89,14.61-17.35,21.06-20.75c-4.8-0.7-11.41-1.3-17.32-1.62c-1.25-0.07-2.27-1.01-2.44-2.25s0.57-2.42,1.75-2.81
						c7.52-2.51,18.3-2.66,23.57-2.56c-0.25-4.07,0.4-8.03,0.43-8.24c0.12-0.74,0.56-1.38,1.19-1.78c0.63-0.39,1.41-0.5,2.12-0.28
						c5.6,1.68,8.37,6.34,9.69,9.88c25.15-20.77,44.04-15.9,44.86-15.68c1.24,0.34,2.04,1.53,1.89,2.81
						c-0.15,1.27-1.2,2.25-2.49,2.3c-22.96,0.85-36.91,22.44-37.05,22.66c-0.44,0.69-1.17,1.13-1.98,1.2
						c-19.04,1.59-41.07,20.06-41.29,20.25C63.88,124.68,63.29,124.88,62.69,124.88z M87.82,96.38c1.3,0.36,2.34,0.75,3,1.19
						c0.84,0.55,1.29,1.54,1.15,2.53c-0.14,1-0.84,1.82-1.8,2.12c-0.1,0.03-5.53,1.79-11.65,6.05c7.53-4.27,16.61-8.28,25.45-9.31
						c1.55-2.21,5.48-7.39,11.56-12.38c-4.53,2.55-9.52,6.02-14.81,10.74c-0.72,0.64-1.74,0.84-2.64,0.5
						c-0.91-0.34-1.55-1.15-1.67-2.11c-0.01-0.06-0.76-5.32-4.23-8.28c-0.1,1.82-0.08,4.01,0.33,5.85c0.18,0.8-0.03,1.63-0.56,2.25
						c-0.53,0.62-1.31,0.95-2.13,0.91C89.77,96.45,89.04,96.41,87.82,96.38z"/>
				</g>
			</g>
		</g>
		<g>
			<g>
				<g>
					<path class="st7" d="M189.77,116.1c0,0-15.4-16.8-30.32-11.66c-14.93,5.13-33.12,22.39-27.06,48.52
						c6.07,26.13,17.73,62.52,31.26,66.72s30.41-2.33,30.41-2.33s31.64,7.95,40.51,3.74c8.86-4.21,59.25-102.18,2.8-120.38
						C237.36,100.7,212.63,91.37,189.77,116.1z"/>
				</g>
				<g>
					<path class="st4" d="M226.25,226.18c-11.27,0-26.48-3.43-31.99-4.78c-4.3,1.47-19.12,5.91-31.77,1.99
						c-7.33-2.27-14.16-11.22-20.87-27.36c-6.36-15.27-10.89-32.99-13.03-42.2c-6.77-29.16,13.99-47.73,29.59-53.09
						c13.1-4.5,25.89,4.85,31.51,9.86c23.03-22.29,46.9-14.32,48.94-13.59c17.54,5.68,27.51,19.37,28.84,39.57
						c1.38,20.93-6.72,44.03-11.68,55.93c-5.87,14.11-14.48,29.67-19.57,32.08C233.83,225.74,230.3,226.18,226.25,226.18z
						 M193.8,213.26l1.2,0.3c12.51,3.14,32.44,6.45,37.8,4.04c5.36-3.72,31.1-51.04,26.48-84.55c-2.06-14.92-9.62-24.28-23.12-28.63
						l-0.18-0.06c-0.9-0.33-22.66-7.98-43.35,14.39l-2.88,3.11l-2.86-3.12c-0.14-0.15-13.88-14.84-26.19-10.62
						c-12.93,4.44-30.13,19.82-24.53,43.95c8.23,35.45,19.73,61.11,28.62,63.87c12.04,3.73,27.69-2.19,27.85-2.25L193.8,213.26z"/>
				</g>
			</g>
			<g>
				<g>
					<g>
						<path class="st5" d="M190.2,102.69c-0.1,0-0.2-0.01-0.31-0.02l-3.68-0.49c-1.22-0.16-2.1-1.24-2.03-2.46
							c0.06-1.04,1.68-25.73,9.18-37.73c0.33-0.53,0.87-0.91,1.48-1.04c0.17-0.04,0.33-0.05,0.5-0.05c0.45,0,0.9,0.13,1.28,0.38
							l5.52,3.61c1.01,0.66,1.35,1.98,0.79,3.05c-0.1,0.18-9.74,18.56-10.4,32.53c-0.03,0.65-0.33,1.26-0.84,1.68
							C191.28,102.5,190.75,102.69,190.2,102.69z"/>
					</g>
				</g>
				<g>
					<g>
						<path class="st4" d="M195.35,63.22l5.52,3.61c0,0-9.98,18.84-10.67,33.52l-3.68-0.49C186.52,99.86,188.08,74.86,195.35,63.22
							 M195.35,58.55c-0.33,0-0.67,0.04-1,0.11c-1.23,0.27-2.3,1.02-2.96,2.09c-7.82,12.5-9.47,37.76-9.53,38.83
							c-0.15,2.45,1.62,4.61,4.06,4.93l3.68,0.49c0.2,0.03,0.41,0.04,0.61,0.04c1.09,0,2.15-0.38,3-1.09c1-0.84,1.61-2.06,1.67-3.37
							c0.63-13.43,10.03-31.37,10.13-31.55c1.13-2.13,0.45-4.78-1.57-6.1l-5.52-3.61C197.15,58.81,196.26,58.55,195.35,58.55
							L195.35,58.55z"/>
					</g>
				</g>
			</g>
		</g>
		<g>
			<g>
				<g>
					<g>
						<g>
							<g>
								<path class="st5" d="M203.69,286.41c-1.95,0-3.93-0.05-5.9-0.14c-0.51-12.77,0.22-62.04,39.72-84.8l2.28-1.31
									c40.17-23.14,70.85-40.81,80.48-62.02c2.87,11.86,3.9,24.06,3.06,36.43c-2.09,30.55-15.58,58.85-37.98,79.69
									C263.05,274.99,234.05,286.41,203.69,286.41C203.69,286.41,203.69,286.41,203.69,286.41z"/>
							</g>
						</g>
					</g>
					<g>
						<g>
							<g>
								<path class="st4" d="M318.65,147.84c1.39,8.69,1.79,17.54,1.18,26.47c-2.03,29.65-15.12,57.12-36.87,77.36
									c-21.65,20.14-49.8,31.23-79.27,31.23c-0.82,0-1.65-0.01-2.48-0.03c-0.13-15.82,2.97-58.16,38.04-78.37l2.28-1.31
									c23.39-13.48,43.6-25.12,58.35-36.64C308.04,160.18,314.24,154.01,318.65,147.84 M320,124.99l-0.17,1.42
									c-2.2,25.23-36.35,44.52-84.07,72.02c-46.47,26.78-41.57,87.96-41.28,91.15c0.22,0.02,0.44,0.04,0.66,0.05
									c2.87,0.2,5.72,0.29,8.55,0.29c64.4,0,118.68-49.92,123.13-115.12C328.02,157.34,325.52,140.49,320,124.99L320,124.99z"/>
							</g>
						</g>
					</g>
				</g>
				<g>
					<g>
						<g>
							<path class="st4" d="M194.48,289.57c0,0,93.47-69.36,115.67-118.7c0,0-22.16,59.49-104.58,119.05
								C205.56,289.92,196.93,289.93,194.48,289.57z"/>
						</g>
					</g>
				</g>
			</g>
			<g>
				<g>
					<g>
						<g>
							<g>
								<path class="st8" d="M187.23,285.28c-29.61-4.44-56.36-19.19-75.72-41.87c-20.4-23.89-30.47-54.13-28.34-85.15
									c0.17-2.48,0.42-4.96,0.74-7.42c5.51,9.35,18.23,20.34,47.32,25.41c42.77,7.46,69.94,28.93,77.48,35.56
									C185.78,245.14,186,274.08,187.23,285.28z"/>
							</g>
						</g>
					</g>
					<g>
						<g>
							<g>
								<path class="st4" d="M86.56,160.11c9.23,9.52,24.01,16.1,44.06,19.6c25.76,4.49,45.5,14.17,57.53,21.49
									c7.16,4.36,12.52,8.44,15.91,11.24c-19.25,29.3-21.31,55.13-20.66,68.64c-27.04-5.05-51.37-19.03-69.22-39.94
									C94.72,218.36,84.95,189.64,86.56,160.11 M83.33,135.57c-1.89,7.23-3.14,14.74-3.67,22.46
									c-4.52,66.18,45.08,123.81,111.75,131.34c-0.05-0.19-8.42-35.83,21.93-78.06c0,0-29.1-29.38-81.52-38.52
									C80.47,163.84,83.19,136.67,83.33,135.57L83.33,135.57z"/>
							</g>
						</g>
					</g>
				</g>
				<g>
					<g>
						<g>
							<path class="st4" d="M195.68,245.33c0,0-61.63-20.44-94.02-57.86c0,0,32.77,45.15,91.86,65.19
								C193.52,252.65,195.55,245.74,195.68,245.33z"/>
						</g>
					</g>
				</g>
			</g>
		</g>
		<g>
			<g>
				<g>
					<ellipse class="st2" cx="197.7" cy="296.89" rx="62.49" ry="4.31"/>
				</g>
			</g>
		</g>
	</g>
</g>
</svg>
